# xmcd CD database file
#
# Track frame offsets:
#	150
#	19930
#	31467
#
# Disc length: 679 seconds
#
# Revision: 1
# Processed by: cddbd v1.5.1PL0 Copyright (c) Steve Scherf et al.
# Submitted via: CDex 1.51
#
DISCID=1d02a503
DTITLE=小林建樹 - SPooN
DYEAR=2000
DGENRE=Rock
TTITLE0=SPooN
TTITLE1=ジョニー・クローム
TTITLE2=SPooN(Instrumental)
EXTD=YEAR: 2000
EXTT0=
EXTT1=
EXTT2=
PLAYORDER=
